<svg xmlns="http://www.w3.org/2000/svg" xmlns:xlink="http://www.w3.org/1999/xlink" width="500" zoomAndPan="magnify" viewBox="0 0 375 374.999991" height="500" preserveAspectRatio="xMidYMid meet" version="1.0"><defs><g/></defs><g fill="#172b4d" fill-opacity="1"><g transform="translate(73.971679, 303.181705)"><g><path d="M 122.140625 -220.476562 C 62.636719 -220.476562 16.285156 -179.449219 16.285156 -106.792969 C 16.285156 -36.015625 60.128906 4.382812 119.320312 4.382812 C 174.125 4.382812 211.394531 -24.113281 216.40625 -72.96875 L 216.71875 -76.101562 L 167.550781 -76.101562 L 166.921875 -72.96875 C 161.914062 -47.289062 146.566406 -31.945312 121.199219 -31.945312 C 91.761719 -31.945312 67.960938 -55.433594 67.960938 -109.613281 C 67.960938 -157.527344 90.195312 -184.148438 121.511719 -184.148438 C 147.507812 -184.148438 162.851562 -170.683594 167.863281 -145.628906 L 168.488281 -142.496094 L 217.660156 -142.496094 L 217.34375 -145.628906 C 212.960938 -188.21875 181.957031 -220.476562 122.140625 -220.476562 Z M 122.140625 -220.476562 "/></g></g></g></svg>